<svg
  xmlns="http://www.w3.org/2000/svg"
  xmlns:xlink="http://www.w3.org/1999/xlink"
  fill="none"
>

<symbol id="click" fill="currentColor" viewBox="0 0 24 27">
<path d="M20.7208 9.9402C20.3807 9.94436 20.0444 10.0015 19.7285 10.1086C19.6376 9.60709 19.3276 9.15296 18.8601 8.83652C18.3926 8.51997 17.8018 8.36432 17.2051 8.40038C16.6085 8.43645 16.0498 8.66159 15.64 9.0311C15.442 8.69098 15.1371 8.404 14.7587 8.20188C14.3803 7.99987 13.9435 7.89058 13.4964 7.8862C12.9791 7.87568 12.4738 8.01861 12.0674 8.29033V1.79153C11.9662 1.12555 11.4878 0.543489 10.7858 0.232972C10.0841 -0.0776572 9.24753 -0.0776572 8.54575 0.232972C7.84384 0.543489 7.36535 1.12555 7.2642 1.79153V14.0147L5.3986 11.8259C4.91766 11.2879 4.20556 10.9328 3.41732 10.8382C2.62924 10.7436 1.82898 10.9171 1.19092 11.3209C0.436183 11.7942 -0.00625137 12.545 6.67639e-05 13.3412C0.00174656 13.8821 0.19531 14.4101 0.555831 14.8565L6.90704 22.1297C7.61193 22.9276 8.26134 23.7595 8.852 24.6215C9.92383 26.1368 10.3605 26.7092 12.7818 26.7092H18.3391C20.443 26.7092 20.8001 25.3623 21.0385 24.3521C21.2766 23.3419 21.2766 23.3083 21.6339 23.0052C23.0629 21.7256 23.1025 19.5706 23.1025 18.5604V11.9606C23.1025 11.4248 22.8516 10.911 22.405 10.532C21.9583 10.1531 21.3526 9.9402 20.7208 9.9402Z" 
fill="white"/>
</symbol>

<symbol id="user" viewBox="0 0 41 39" fill="currentColor">
<path d="M33.7402 38.3442H7.35822C3.76068 38.3442 0.848389 35.4319 0.848389 31.8344C0.848389 29.6073 3.50372 28.2368 4.36027 27.8086L15.0672 23.0975C15.9238 22.9262 16.2664 22.6692 16.2664 21.47C15.3242 20.3565 11.5554 15.6454 11.5554 11.6196C11.5554 5.45241 15.6668 0.484375 20.8062 0.484375C25.9455 0.484375 30.057 5.45241 30.057 11.534C30.057 15.5598 26.1168 20.3565 25.1746 21.47C25.089 22.7549 25.3459 22.9262 26.1168 23.1831L36.6525 26.8663C38.4513 27.5516 40.1644 29.9499 40.1644 31.7487C40.25 35.4319 37.3377 38.3442 33.7402 38.3442ZM15.5812 24.8106L5.04552 29.436C3.84634 30.0356 2.5615 30.9778 2.5615 31.92C2.5615 34.5754 4.7029 36.7168 7.35822 36.7168H33.7402C36.3955 36.7168 38.5369 34.5754 38.5369 31.92C38.5369 30.8065 37.2521 29.0934 36.1386 28.6651L25.6886 24.8963C23.7185 24.211 23.3758 22.9262 23.5472 21.1274V20.8704L23.7185 20.6991C23.8041 20.6135 28.3439 15.4741 28.3439 11.7053C28.3439 6.65159 24.9177 2.3688 20.8062 2.3688C16.6947 2.3688 13.2685 6.65159 13.2685 11.7909C13.2685 15.5598 17.7226 20.6991 17.7226 20.6991L17.8939 20.9561V21.2131C18.0652 23.2688 17.3799 24.2967 15.5812 24.8106Z" 
fill="#01457A"/>
</symbol>



<symbol id="chart" fill="currentColor" viewBox="0 0 45 46">
<path d="M38.0043 38.5043C46.6842 29.824 46.6842 15.7008 38.0043 7.02056C33.7997 2.81593 28.2089 0.5 22.2622 0.5C16.3155 0.5 10.7251 2.81589 6.52012 7.02012C2.31567 11.2248 0 16.8155 0 22.7622C0 28.7089 2.31589 34.2994 6.52012 38.5043C10.7248 42.709 16.3155 45.0244 22.2622 45.0244C28.2089 45.0244 33.7994 42.7086 38.0043 38.5043ZM7.64138 37.3834C3.73644 33.4779 1.58544 28.2856 1.58544 22.7625C1.58544 17.2395 3.73635 12.0472 7.64138 8.14169C11.5463 4.23622 16.7392 2.08575 22.2622 2.08575C27.7853 2.08575 32.9776 4.23666 36.8831 8.14169C44.9446 16.2037 44.9446 29.3219 36.8831 37.3834C32.9776 41.2888 27.7853 43.4393 22.2622 43.4393C16.7392 43.4393 11.5469 41.2889 7.64138 37.3834Z" 
fill="#01457A"/>
<path d="M20.7875 25.3586L33.1478 12.9983V18.0911C33.1478 18.5293 33.5028 18.8839 33.9405 18.8839C34.3781 18.8839 34.7332 18.5293 34.7332 18.0911V11.0844C34.7332 10.9818 34.712 10.8852 34.6771 10.7954C34.6756 10.7916 34.6751 10.7874 34.6733 10.7831C34.593 10.5881 34.4371 10.4322 34.2421 10.3519C34.2378 10.3503 34.2336 10.3498 34.2298 10.3481C34.14 10.3126 34.0428 10.292 33.9408 10.292L26.9336 10.2922C26.496 10.2922 26.1409 10.6467 26.1409 11.0849C26.1409 11.523 26.496 11.8776 26.9336 11.8776H32.0264L19.0659 24.8373L20.2338 30.6765L13.5274 37.3834C13.2178 37.693 13.2178 38.1947 13.5274 38.5043C13.6822 38.6592 13.8852 38.7364 14.088 38.7364C14.291 38.7364 14.4939 38.6592 14.6487 38.5043L21.9553 31.1976L20.7875 25.3586Z" 
fill="#01457A"/>
</symbol>


<symbol id="spray" fill="currentColor" viewBox="0 0 126 106">
<path d="M56.2612 74.3237V96.4593H51.3864C50.2004 96.4593 49.1467 95.4051 49.1467 94.3513V76.5638C49.1467 75.3778 50.2009 74.3241 51.3864 74.3241L56.2612 74.3237Z" fill="#01457A"/>
<path d="M121.087 5.28143L120.691 8.83872L98.6876 6.20353L99.0831 2.64625C99.2148 0.933154 100.796 -0.120592 102.377 0.0110575L118.583 1.98745C120.164 2.25079 121.35 3.70054 121.087 5.28143H121.087Z" fill="#01457A"/>
<path d="M125.171 18.589L117.003 87.3674C115.948 95.8001 108.965 101.993 100.533 101.993L65.3529 101.993C63.3765 101.993 61.7956 100.412 61.7956 98.4358V72.4792C61.7956 70.5028 63.3765 68.9219 65.3529 68.9219H80.1099L79.3195 75.9054C79.1878 77.4863 80.2416 78.8039 81.823 79.0677H82.2185C83.6677 79.0677 84.722 78.0135 84.9853 76.5642L92.3637 14.769C92.6271 12.7926 94.3401 11.4751 96.3165 11.6067L122.273 14.6374C123.986 14.7686 125.435 16.6133 125.172 18.5897L125.171 18.589Z" fill="#01457A"/>
<path d="M4.61158 80.7798C7.24677 80.7798 9.22316 82.8878 9.22316 85.3914C9.22316 88.0266 7.11512 90.0029 4.61158 90.0029C1.97639 90.0029 0 87.8949 0 85.3914C0 82.8878 2.10804 80.7798 4.61158 80.7798Z" fill="#01457A"/>
<path d="M18.7099 81.8335C20.8179 81.8335 22.3993 83.5466 22.3993 85.523C22.3993 87.631 20.6863 89.2125 18.7099 89.2125C16.6018 89.2125 15.0204 87.4994 15.0204 85.523C14.8891 83.4149 16.6017 81.8335 18.7099 81.8335Z" fill="#01457A"/>
<path d="M33.5987 85.5232C33.5987 87.0514 32.36 88.29 30.8318 88.29C29.3037 88.29 28.065 87.0514 28.065 85.5232C28.065 83.995 29.3037 82.7563 30.8318 82.7563C32.36 82.7563 33.5987 83.995 33.5987 85.5232Z" fill="#01457A"/>
<path d="M41.109 83.6782C42.1632 83.6782 42.9537 84.4687 42.9537 85.523C42.9537 86.5772 42.1632 87.3677 41.109 87.3677C40.0547 87.3677 39.2642 86.5772 39.2642 85.523C39.2647 84.4687 40.0551 83.6782 41.109 83.6782Z" fill="#01457A"/>
<path d="M5.40201 74.8505C2.89848 74.1917 1.44923 71.6881 2.10803 69.1846C2.76683 66.6811 5.27037 65.2318 7.7739 65.8906C10.2774 66.5494 11.7267 69.1846 11.0679 71.5565C10.5408 74.0596 7.90555 75.5093 5.40201 74.8505Z" fill="#01457A"/>
<path d="M19.2368 77.6176C17.2604 77.0905 16.0745 74.9824 16.6016 73.006C17.1288 71.0297 19.2368 69.8437 21.2132 70.3709C23.1896 70.898 24.3755 73.006 23.8484 74.9824C23.3212 76.9588 21.2132 78.1448 19.2368 77.6176Z" fill="#01457A"/>
<path d="M31.227 79.8572C29.7778 79.4617 28.8551 77.8808 29.2506 76.4315C29.6461 74.9823 31.227 74.0597 32.6763 74.4552C34.1255 74.8506 35.0481 76.4315 34.6526 77.8808C34.2576 79.33 32.6767 80.2527 31.227 79.8572Z" fill="#01457A"/>
<path d="M41.3725 81.5702C40.3182 81.3068 39.7916 80.2526 40.0549 79.3305C40.3182 78.2762 41.3725 77.7496 42.2946 78.0129C43.3488 78.2762 43.8755 79.3305 43.6122 80.2526C43.3488 81.3064 42.2946 81.8335 41.3725 81.5702Z" fill="#01457A"/>
<path d="M5.40201 96.0635C7.90555 95.4047 10.4091 96.8539 11.0679 99.3575C11.7267 101.861 10.2774 104.365 7.7739 105.023C5.27039 105.682 2.76683 104.233 2.10803 101.729C1.44923 99.3575 2.8985 96.854 5.40201 96.0635Z" fill="#01457A"/>
<path d="M19.2368 93.4285C21.2132 92.9013 23.3212 94.0873 23.8484 96.0637C24.3755 98.04 23.1896 100.148 21.2132 100.675C19.2368 101.202 17.1288 100.016 16.6016 98.04C16.0745 95.932 17.2604 93.9556 19.2368 93.4285Z" fill="#01457A"/>
<path d="M31.227 91.1885C32.6762 90.7931 34.2577 91.7157 34.6526 93.1649C35.0481 94.6142 34.1255 96.1956 32.6762 96.5906C31.227 96.986 29.6455 96.0634 29.2506 94.6142C28.8556 93.0333 29.646 91.5839 31.227 91.1885Z" fill="#01457A"/>
<path d="M41.3725 89.344C42.4267 89.0806 43.3489 89.6073 43.6122 90.6616C43.8755 91.7158 43.3488 92.6379 42.2946 92.9012C41.2403 93.1646 40.3182 92.6379 40.0549 91.5837C39.7911 90.6615 40.3182 89.6073 41.3725 89.344Z" fill="#01457A"/>
</symbol>


<symbol id="heart" fill="currentColor" viewBox="0 0 83 134">
<path fill-rule="evenodd" clip-rule="evenodd" d="M75.5188 81.8887C75.5211 81.895 75.5234 81.9014 75.5257 81.9069C75.9153 82.9442 76.743 83.5527 77.6207 83.5527C77.9342 83.5527 78.2547 83.4747 78.5629 83.3115C79.7372 82.6919 80.2444 81.1013 79.7195 79.6904C79.1954 78.2802 77.8627 77.6567 76.6869 78.2715C75.5103 78.8871 74.9977 80.4754 75.5188 81.8887Z" fill="#01457A"/>
<path fill-rule="evenodd" clip-rule="evenodd" d="M81.6612 89.4559C81.4699 88.0457 80.3294 87.0817 79.1151 87.3064C77.9016 87.5286 77.0732 88.8529 77.2653 90.2646C77.7641 93.9386 77.9016 97.6843 77.6719 101.395C77.1401 109.998 73.3973 117.849 67.4044 122.937L65.8989 124.214C62.9509 126.717 59.4633 128.039 55.8121 128.039C54.4902 128.039 53.1684 127.86 51.8834 127.507L45.9851 125.889C34.5841 122.761 24.1853 115.41 16.703 105.191C13.3776 100.647 11.8774 97.343 10.7254 93.9386C10.8176 93.5933 10.8507 93.2205 10.8069 92.8374C10.7954 92.7263 9.69948 81.5554 23.2569 74.384C32.556 69.4662 36.9058 61.055 38.419 57.4291C48.6126 59.0639 52.1217 62.3981 52.3822 62.6598C52.9202 63.3227 53.6634 63.5363 54.4319 63.3346C54.6171 63.2865 54.8 63.2392 54.9829 63.195C62.1147 61.4554 69.4718 65.8695 72.4782 73.6864C72.9801 74.991 74.2965 75.5751 75.4193 74.9926C76.5414 74.4093 77.044 72.8801 76.5437 71.5755C74.8399 67.1496 71.9756 63.4221 68.4104 60.9462C68.412 60.9375 68.415 60.9289 68.4181 60.9202C68.8669 59.2539 69.0937 57.5158 69.0937 55.7557C69.0937 55.4033 69.0814 55.0541 69.0637 54.7065H70.6084C71.8365 54.7065 72.834 53.5486 72.834 52.1203C72.834 50.6913 71.8365 49.5341 70.6084 49.5341H68.0923C67.5197 47.8181 66.7212 46.233 65.7337 44.8315L66.742 43.661C67.6112 42.6505 67.6112 41.0125 66.742 40.002C65.872 38.9931 64.4633 38.9931 63.5941 40.002L62.429 41.3562C60.6238 39.9642 58.5434 39.0175 56.304 38.6518C59.2528 35.9103 63.1269 34.612 67.8486 34.7989C68.4511 34.8257 69.0368 34.5608 69.4717 34.0737C69.9052 33.5866 70.1504 32.9158 70.1504 32.215V22.3621C70.1504 21.0166 69.2627 19.8965 68.1076 19.7853C67.7464 19.7507 63.5788 19.3818 58.1592 20.1393C55.736 14.691 52.3246 10.6434 48.4021 8.39692L49.9775 5.66411C50.6615 4.47703 50.3879 2.87061 49.3658 2.07606C48.3452 1.28152 46.9626 1.59839 46.2787 2.78547L44.023 6.69827C43.0616 6.49255 42.0818 6.38219 41.0896 6.38219C40.5171 6.38219 39.9476 6.41924 39.3835 6.48939V3.37429C39.3835 1.94601 38.3867 0.788086 37.1578 0.788086C35.9282 0.788086 34.9315 1.94601 34.9315 3.37429V7.79787C32.8434 8.78552 30.8652 10.2777 29.0584 12.2538C27.7066 13.7325 26.49 15.4414 25.4233 17.3379C24.5887 15.4248 22.8788 14.1085 20.9098 14.1085H14.8678C12.078 14.1085 9.80934 16.7451 9.80934 19.9863V46.4245C8.68884 47.4359 7.60909 48.6214 6.57621 49.9905C1.69688 56.4572 0.725479 64.9315 0.770053 70.9016C0.820775 77.6544 2.2256 84.5389 4.44585 88.953C4.78169 89.9974 5.08372 91.0048 5.37652 91.9822C6.87283 96.967 8.2854 101.676 13.3123 108.542C21.4048 119.596 32.6444 127.544 44.9622 130.923L50.8598 132.542C52.4806 132.986 54.1467 133.212 55.8121 133.212C60.414 133.212 64.8099 131.544 68.5242 128.392L70.0289 127.115C77.0824 121.127 81.4868 111.889 82.1123 101.766C82.3659 97.6622 82.2138 93.5208 81.6612 89.4559ZM54.4987 58.0337C53.6011 57.3077 52.0717 56.2743 49.6816 55.2378C49.8661 52.7486 50.4878 48.0578 52.5782 43.8044C53.1192 43.7051 53.6726 43.6523 54.2244 43.6523C59.9683 43.6523 64.6416 49.0833 64.6416 55.7572C64.6416 56.7843 64.5294 57.7988 64.3119 58.7825C61.1525 57.5915 57.7688 57.3243 54.4987 58.0337ZM65.6983 24.8561V29.6407C60.1842 29.9181 55.6346 32.0582 52.1516 36.0167C47.26 41.5785 45.7845 49.304 45.3418 53.6944C43.213 53.0772 40.6846 52.52 37.6928 52.1046C37.0157 51.3762 36.3417 50.6897 35.6708 50.041C35.6738 49.9779 35.6785 49.9164 35.6785 49.8526C35.6785 42.9059 37.6105 37.3133 41.4201 33.2303C48.6641 25.4662 60.8782 24.8009 65.6983 24.8561ZM41.0896 11.5554C42.2047 11.5554 43.3037 11.7461 44.3735 12.1087L44.3765 12.1095C47.924 13.3139 51.138 16.4424 53.4981 21.0402C48.3244 22.3361 42.7258 24.8001 38.4152 29.4136C34.3097 33.8049 31.9488 39.5117 31.3694 46.4088C29.548 45.0956 27.745 44.0859 25.9682 43.3859V28.4299C26.0066 28.3259 26.042 28.2202 26.0697 28.1091C28.5243 18.2081 34.5603 11.5554 41.0896 11.5554ZM14.2606 19.9863C14.2606 19.597 14.5327 19.2809 14.8678 19.2809H20.9098C21.2442 19.2809 21.5162 19.597 21.5162 19.9863V42.2729C20.7707 42.1965 20.0307 42.1767 19.2952 42.2146C17.5537 42.3052 15.8738 42.7191 14.2606 43.4482V19.9863ZM9.92389 53.4012C12.8012 49.5869 16.0205 47.5628 19.4935 47.3822C23.9217 47.1521 29.0169 49.9487 34.272 55.4814C32.9125 58.5799 29.1314 65.5936 21.4132 69.6759C12.8949 74.1815 9.25832 80.2934 7.70745 84.6272C7.68132 84.7005 7.6575 84.7722 7.63137 84.8447C4.81706 77.6024 3.30464 62.1735 9.92389 53.4012Z" fill="#01457A"/>
<path fill-rule="evenodd" clip-rule="evenodd" d="M28.9224 104.637C27.9986 103.733 26.6284 103.885 25.8614 104.973C25.0959 106.062 25.2227 107.677 26.1465 108.579C32.0272 114.328 39.0691 118.46 46.5115 120.531C46.6798 120.578 46.8473 120.6 47.0133 120.6C47.9978 120.6 48.8908 119.805 49.1267 118.627C49.4026 117.251 48.6787 115.871 47.5105 115.546C40.7168 113.656 34.2897 109.882 28.9224 104.637Z" fill="#01457A"/>
<path fill-rule="evenodd" clip-rule="evenodd" d="M20.0076 97.6205C19.05 98.6129 18.9417 100.338 19.7701 101.483C20.2243 102.135 20.876 102.471 21.5331 102.471C22.0511 102.471 22.5714 102.262 22.9995 101.834C23.9716 100.865 24.1031 99.1339 23.293 97.9697L23.2461 97.9043C22.4169 96.7582 20.9636 96.6273 20.0076 97.6205Z" fill="#01457A"/>
</symbol>


<symbol id="bladder" fill="currentColor" viewBox="0 0 119 134">
<path fill-rule="evenodd" clip-rule="evenodd" d="M52.6659 131.856C52.7087 133.051 53.7167 134 54.9441 134H55.0138C56.268 133.962 57.2593 132.938 57.2164 131.716C56.927 124.872 55.5979 118.108 53.2717 111.638C57.3988 111.938 61.542 111.938 65.6691 111.638C63.359 118.113 62.0456 124.882 61.7669 131.732C61.7348 132.954 62.7317 133.968 63.9859 134C65.2455 134.032 66.2853 133.062 66.3175 131.84C66.5801 125.44 67.8129 119.11 69.9729 113.059C70.7876 110.743 69.512 108.224 67.1376 107.436C66.5695 107.249 65.9745 107.174 65.3795 107.211C61.4668 107.49 57.5436 107.49 53.6309 107.211C51.1279 107.045 48.957 108.894 48.7909 111.333C48.748 111.922 48.8284 112.512 49.0267 113.069C51.1707 119.126 52.3979 125.456 52.6659 131.856Z" fill="#01457A"/>
<path fill-rule="evenodd" clip-rule="evenodd" d="M117.869 8.8613C117.097 7.993 115.853 7.99827 115.092 8.87193C111.673 13.1438 109.111 18.2036 107.588 23.7135C104.651 19.8008 101.296 16.3222 97.5975 13.3528C102.748 11.4875 107.396 8.1537 111.089 3.67284C111.78 2.72414 111.667 1.31447 110.837 0.526564C110.006 -0.250619 108.779 -0.132604 108.082 0.794656C105.23 4.64841 100.283 7.82677 93.4062 10.2602C83.1206 3.46383 71.4202 -0.0790597 59.5213 0.00133849C47.6223 -0.0736998 35.927 3.4691 25.6468 10.2708C18.7593 7.83204 13.8068 4.65377 10.95 0.794656C10.2478 -0.143323 9.00972 -0.250631 8.1843 0.547991C7.36424 1.34125 7.25701 2.7295 7.94843 3.67284C11.6468 8.15906 16.2989 11.4929 21.4551 13.3582C17.7568 16.3329 14.3963 19.8221 11.4538 23.7402C9.93155 18.2249 7.36952 13.1491 3.94455 8.87193C3.20489 7.97148 1.96137 7.92326 1.16811 8.7594C0.374844 9.6009 0.326702 11.0105 1.06637 11.9163C1.09317 11.9485 1.12528 11.9807 1.15208 12.0128C4.70032 16.6116 7.23532 22.0947 8.55921 28.0174C3.47804 36.1376 0.69639 45.823 0.583832 55.7817C0.476635 73.3514 10.8857 90.7762 29.1361 103.586C37.9209 109.981 43.8864 120.32 45.5373 132.021C45.6606 133.243 46.6361 134.122 47.7134 133.982C48.7908 133.843 49.5624 132.739 49.4391 131.511C49.4337 131.458 49.4285 131.404 49.4178 131.351C47.5794 118.364 40.9543 106.888 31.1993 99.7917C23.1327 94.1263 4.3788 78.5021 4.5128 55.8137C4.68431 27.5029 29.3612 4.46616 59.5213 4.46616C89.7188 4.46616 114.396 27.4975 114.53 55.8137C114.637 77.6392 97.8656 92.7326 87.8533 99.7809C78.1037 106.877 71.4735 118.353 69.6244 131.334C69.4582 132.557 70.198 133.693 71.2646 133.88C71.3665 133.897 71.4681 133.907 71.5646 133.907C72.5348 133.902 73.3602 133.098 73.5049 132.01C75.1718 120.309 81.1429 109.97 89.9277 103.576C100.631 96.0344 118.576 79.7885 118.458 55.7977C118.362 45.823 115.58 36.1269 110.488 27.996C111.812 22.084 114.347 16.6062 117.89 12.0128C118.651 11.1392 118.641 9.72424 117.869 8.8613Z" fill="#01457A"/>
<path fill-rule="evenodd" clip-rule="evenodd" d="M107.739 56.2802C107.739 31.1584 86.1061 10.7212 59.4997 10.7212C32.8932 10.7212 11.2607 31.1584 11.2607 56.2802C11.2607 81.4019 32.8986 101.839 59.4997 101.839C86.1008 101.839 107.739 81.4019 107.739 56.2802ZM103.842 56.2802C103.826 61.8437 102.631 67.3162 100.358 72.2044C88.1267 73.3622 75.9814 68.9938 66.4194 59.9999C77.6483 52.748 90.2332 48.8461 103.065 48.6424C103.579 51.1455 103.837 53.7074 103.842 56.2802ZM59.4997 15.2771C79.3795 15.2771 96.2524 27.444 101.859 44.1508C88.2287 44.526 74.9041 48.9317 63.1231 56.9662C50.195 45.9838 39.4644 41.0153 17.5157 43.1163C23.4544 26.9509 40.0272 15.2771 59.4997 15.2771ZM15.1573 56.2802C15.1627 53.4341 15.4789 50.5987 16.106 47.8491C38.7462 45.346 48.6351 50.0842 61.7347 61.4204C71.2646 71.3576 83.5655 76.8888 96.3381 76.9692C96.8204 76.9692 97.3135 76.9425 97.7906 76.9264C90.083 89.0826 75.8098 97.2832 59.4997 97.2832C35.0533 97.2832 15.1573 78.8882 15.1573 56.2802Z" fill="#01457A"/>
<path fill-rule="evenodd" clip-rule="evenodd" d="M32.7003 77.7185C32.7003 79.1978 31.4997 80.3985 30.0204 80.3985C28.5411 80.3985 27.3405 79.1978 27.3405 77.7185C27.3405 76.2392 28.5411 75.0386 30.0204 75.0386C31.4997 75.0386 32.7003 76.2392 32.7003 77.7185Z" fill="#01457A"/>
<path fill-rule="evenodd" clip-rule="evenodd" d="M21.6162 55.9784C21.6162 54.6653 20.4959 53.5986 19.1185 53.5986C17.7356 53.5986 16.6207 54.6653 16.6207 55.9784C16.6797 62.4532 18.8396 68.7564 22.7952 74.0252C23.5885 75.0971 25.1431 75.3598 26.274 74.6094C27.4049 73.8537 27.6782 72.3689 26.8903 71.2916C23.4975 66.8375 21.6537 61.483 21.6162 55.9784Z" fill="#01457A"/>
</symbol>


<symbol id="infarct" fill="currentColor" viewBox="0 0 99 130">
<path fill-rule="evenodd" clip-rule="evenodd" d="M60.0845 50.8276C71.8873 50.8276 79.425 39.4099 80.338 30.2932C86.8363 28.7499 93.0399 15.0774 87.4779 16.3019C84.8373 16.8563 83.269 14.5136 80.708 10.3042C77.9083 5.71584 74.4249 0 67.4864 0C63.1838 0 60.815 1.08123 59.6398 1.88985C57.8842 1.57564 54.045 1.32153 50.7163 4.0847C47.336 6.88946 45.5429 11.8982 45.3275 18.9355C44.4052 19.6379 43.6653 20.8947 43.2252 22.5766C42.3825 25.7741 42.7383 30.0622 45.3086 32.5435C45.6129 39.4099 48.9558 50.8276 60.0845 50.8276ZM60.0845 46.7614C49.1618 46.7614 48.9886 32.1323 48.9886 31.5131C48.9839 30.8154 48.6562 30.1639 48.1225 29.7942C46.0765 28.3803 46.1841 23.815 47.3452 22.3688C51.0064 22.4797 50.056 24.8963 52.1862 24.3418C55.5384 23.4639 58.2539 21.1582 59.8784 19.467C62.3504 22.9464 68.0623 29.4846 76.5926 30.3949C75.6656 37.0857 70.1504 46.7614 60.0845 46.7614ZM52.912 7.35619C55.8147 4.9257 59.5462 6.01618 59.579 6.0208C61.4142 6.59839 60.9693 4.06623 67.4864 4.06623C72.4491 4.06623 74.9679 8.19714 77.6319 12.5729C79.5982 15.7936 81.78 19.3376 85.0807 20.234C83.9055 22.817 81.7097 26.4303 78.5823 26.4303C68.0061 26.4303 61.7278 15.3222 61.667 15.2113C60.9834 13.9775 59.415 13.9268 58.6331 14.9988C58.605 15.0404 55.9553 18.6537 52.2988 20.0722C51.6152 19.4669 50.5524 18.8108 49.0355 18.4966C49.2695 13.0765 50.5664 9.3246 52.912 7.35619Z" fill="#01457A"/>
<path fill-rule="evenodd" clip-rule="evenodd" d="M94.6558 59.5979C92.2821 55.2961 81.1486 47.2791 79.4444 46.4243C78.4332 45.9206 77.2018 46.3226 76.6915 47.3207C76.1811 48.3188 76.5837 49.5386 77.595 50.0422C79.2196 50.8601 89.3417 58.4288 91.0552 61.5385C92.1602 63.5532 93.7943 79.0279 94.8009 93.4121C91.5986 94.2715 83.8733 95.9119 77.7916 93.8649C80.8114 86.6936 83.2134 80.8669 84.632 72.9332C84.8287 71.8335 84.0841 70.7753 82.9698 70.5812C81.8368 70.3872 80.7927 71.1219 80.596 72.2263C79.2149 79.9428 76.7805 85.7279 74.2008 91.8549C72.5388 95.7964 70.8581 99.8025 69.4676 104.363C69.4629 104.377 69.4581 104.386 69.4581 104.395C67.5714 110.592 66.2277 117.819 66.2277 127.351C66.2277 128.469 67.1452 129.38 68.2782 129.38C69.4112 129.38 70.3243 128.469 70.3243 127.351C70.3243 123.992 70.5023 120.961 70.8066 118.16C71.5885 123.497 72.3561 127.457 72.4123 127.735C72.5995 128.705 73.4565 129.38 74.4163 129.38C74.5474 129.38 74.6784 129.366 74.8095 129.343C75.9191 129.13 76.6448 128.067 76.4294 126.968C76.406 126.852 74.2055 115.518 73.4704 105.25C74.2991 102.575 75.2448 100.07 76.2374 97.6076C78.9341 98.5549 81.8227 98.9199 84.5943 98.9199C91.3034 98.9199 97.2446 96.9377 97.6145 96.8129C98.49 96.5172 99.0567 95.6716 98.9958 94.7613C98.654 89.5769 96.8141 63.5255 94.6558 59.5979Z" fill="#01457A"/>
<path fill-rule="evenodd" clip-rule="evenodd" d="M70.909 76.1492C70.909 73.0949 68.5634 70.0083 63.3151 70.0083C57.0742 70.0083 37.9491 79.0464 26.8064 84.5912C27.1107 83.6994 27.3775 82.8862 27.5788 82.2439C29.1846 81.9389 28.6228 81.2457 36.4929 66.9308C37.743 64.5789 34.4424 62.5413 33.197 64.8978L26.1463 78.21C17.8782 78.0713 11.1129 72.0599 8.71578 69.634C13.0652 61.0765 24.1892 42.6122 33.197 41.3276C38.6841 40.5467 41.8724 41.7204 41.9146 41.7388C42.8977 42.1131 43.9791 41.5726 44.3349 40.5191C44.6954 39.4563 44.1946 38.278 43.2068 37.8899C43.0476 37.8252 39.1991 36.342 32.6961 37.2707C19.3014 39.1791 5.28396 67.8412 4.69406 69.0611C4.32419 69.8189 4.43197 70.7476 4.97038 71.3806C5.32152 71.8011 12.9247 80.6914 23.6039 82.1053C23.0936 83.6394 22.3961 85.6169 21.6845 87.1695C20.3174 87.8672 19.3201 88.3848 18.8332 88.639C17.8922 89.1287 17.4943 90.3531 17.9531 91.3697C18.4072 92.3862 19.5354 92.816 20.4858 92.3216C30.2146 87.2574 56.8635 74.1021 63.3151 74.1021C65.0708 74.1021 67.1122 74.6382 67.1122 76.1492C67.1122 87.6455 20.631 107.246 13.9688 107.246C9.26359 107.246 4.4786 100.759 4.4786 97.1363C4.4786 93.1995 6.55268 86.7999 7.79336 82.9739C7.80272 82.7614 9.2215 80.0351 6.99296 79.2034C4.77378 78.3809 4.3429 81.4214 4.20713 81.6247C2.89154 85.6909 0.681763 92.5018 0.681763 97.1363C0.681763 103.042 6.90858 110.883 13.435 111.299C12.9341 115.166 12.068 122.532 12.068 127.333C12.068 128.465 12.9201 129.38 13.9688 129.38C15.0175 129.38 15.8648 128.465 15.8648 127.333C15.8648 122.319 16.909 113.979 17.3445 110.726C30.5097 107.311 70.909 90.0251 70.909 76.1492Z" fill="#01457A"/>
<path fill-rule="evenodd" clip-rule="evenodd" d="M92.1219 116.386V103.651C92.1219 102.552 91.5694 101.655 90.8812 101.655C90.193 101.655 89.6359 102.552 89.6359 103.651V116.386C89.6359 121.196 91.8596 128.021 91.9579 128.307C92.721 130.632 94.9311 128.793 94.1539 126.441C93.5921 124.722 92.1219 119.565 92.1219 116.386Z" fill="#01457A"/>
<path fill-rule="evenodd" clip-rule="evenodd" d="M55.4309 68.9363C57.6548 67.4854 60.8199 67.0141 63.6898 67.7026C64.6964 67.9475 65.7827 67.5685 66.1245 66.8616C66.4662 66.1546 65.9325 65.3876 64.9306 65.1473C60.7216 64.1354 56.0911 64.8284 52.8325 66.9539C50.9411 68.1877 53.6003 70.1284 55.4309 68.9363Z" fill="#01457A"/>
<path fill-rule="evenodd" clip-rule="evenodd" d="M63.8161 92.9269C62.669 94.4194 60.5248 95.0479 58.6193 94.4518C57.9264 94.2346 57.1726 94.5627 56.9385 95.1818C56.695 95.7964 57.0649 96.4711 57.7532 96.6836C58.5163 96.9193 59.3075 97.0347 60.0847 97.0347C62.3975 97.0347 64.6355 96.032 65.9932 94.2623C66.4099 93.7217 66.2553 92.987 65.656 92.6174C65.0521 92.2524 64.2281 92.3909 63.8161 92.9269Z" fill="#01457A"/>
<path fill-rule="evenodd" clip-rule="evenodd" d="M70.408 97.7876C69.687 96.8542 68.4556 96.7757 67.6551 97.6213C62.8562 102.649 55.8382 103.106 50.5852 98.7349C49.7097 98.0094 48.4924 98.2451 47.8651 99.2662C47.2377 100.283 47.4391 101.701 48.3146 102.431C51.4092 105.005 54.9815 106.276 58.5303 106.276C62.7346 106.276 66.92 104.497 70.2629 100.994C71.0635 100.158 71.129 98.721 70.408 97.7876Z" fill="#01457A"/>
<path fill-rule="evenodd" clip-rule="evenodd" d="M56.8589 57.3937C56.784 56.2293 55.9785 55.3561 55.0889 55.4578C49.8687 56.0122 45.234 60.1616 42.9961 66.284C42.0644 68.8346 45.0373 70.6135 45.9596 68.0906C47.7013 63.3313 51.3016 60.1061 55.3607 59.6718C56.2596 59.5794 56.9291 58.5581 56.8589 57.3937Z" fill="#01457A"/>
</symbol>

<symbol id="myth" viewBox="0 0 297 116">
<path d="M254.139 115.5H0V1H254.139L295 50.8145L254.139 115.5Z" fill="url(#paint0_linear_0_1)"/>
<path d="M0 114.5H254.139L295 50.5L254.139 1" stroke="url(#paint1_linear_0_1)" strokeWidth="3"/>
<defs>
<linearGradient id="paint0_linear_0_1" x1="295" y1="50.7293" x2="2.95041e-07" y2="50.7293" gradientUnits="userSpaceOnUse">
<stop stopColor="#D8EFFF"/>
<stop offset="1" stopColor="white"/>
</linearGradient>
<linearGradient id="paint1_linear_0_1" x1="295" y1="1.00001" x2="-10.2769" y2="66.874" gradientUnits="userSpaceOnUse">
<stop stopColor="#01457A"/>
<stop offset="0.432292" stopColor="#43A7C7"/>
<stop offset="0.744792" stopColor="#BCD77E"/>
<stop offset="1" stopColor="#BCD77E" stopOpacity="0"/>
</linearGradient>
</defs>
</symbol>

<symbol id='triangle' viewBox="0 0 25.9807 20.25">
	<path id="Polygon 1" d="M12.9904 20.25L25.9807 0L0 0L12.9904 20.25Z" fill="#01457A" fill-opacity="1.000000" fill-rule="evenodd"/>
</symbol>



</svg>